<svg width="80" height="28" viewBox="0 0 80 28" fill="none" xmlns="http://www.w3.org/2000/svg">
<path d="M8.01806 27.0455C6.6459 27.0455 5.46929 26.8565 4.48823 26.4787C3.51379 26.1075 2.73823 25.6004 2.16152 24.9574C1.58482 24.3144 1.21029 23.5919 1.03794 22.7898L4.95556 22.2628C5.07487 22.5677 5.26379 22.8527 5.52232 23.1179C5.78084 23.383 6.12222 23.5952 6.54647 23.7543C6.97734 23.92 7.50101 24.0028 8.11749 24.0028C9.03889 24.0028 9.79789 23.7775 10.3945 23.3267C10.9977 22.8826 11.2993 22.1368 11.2993 21.0895V18.2955H11.1203C10.9347 18.7197 10.6563 19.1207 10.2851 19.4986C9.91389 19.8764 9.43662 20.1847 8.85328 20.4233C8.26995 20.6619 7.57393 20.7812 6.76522 20.7812C5.61843 20.7812 4.5744 20.5161 3.63311 19.9858C2.69845 19.4489 1.95271 18.6302 1.3959 17.5298C0.845707 16.4228 0.570613 15.0241 0.570613 13.3338C0.570613 11.6037 0.852336 10.1586 1.41578 8.99858C1.97923 7.83854 2.72828 6.97017 3.66294 6.39347C4.60423 5.81676 5.63501 5.52841 6.75527 5.52841C7.61039 5.52841 8.32629 5.67424 8.903 5.96591C9.4797 6.25095 9.94372 6.6089 10.295 7.03977C10.653 7.46401 10.9281 7.88163 11.1203 8.29261H11.2794V5.72727H15.4854V21.1491C15.4854 22.4484 15.1672 23.5355 14.5308 24.4105C13.8945 25.2855 13.0128 25.9418 11.886 26.3793C10.7657 26.8234 9.47639 27.0455 8.01806 27.0455ZM8.10754 17.5994C8.79031 17.5994 9.36701 17.4304 9.83766 17.0923C10.3149 16.7476 10.6795 16.2571 10.9314 15.6207C11.1899 14.9777 11.3192 14.2088 11.3192 13.3139C11.3192 12.419 11.1932 11.6435 10.9414 10.9872C10.6895 10.3243 10.3249 9.81061 9.8476 9.44602C9.37033 9.08144 8.79031 8.89915 8.10754 8.89915C7.41152 8.89915 6.82487 9.08807 6.3476 9.46591C5.87033 9.83712 5.50906 10.3542 5.26379 11.017C5.01853 11.6799 4.8959 12.4455 4.8959 13.3139C4.8959 14.1955 5.01853 14.9579 5.26379 15.6009C5.51569 16.2372 5.87696 16.7311 6.3476 17.0824C6.82487 17.4271 7.41152 17.5994 8.10754 17.5994ZM24.6367 21.2983C23.0922 21.2983 21.7565 20.9702 20.6296 20.3139C19.5093 19.651 18.6443 18.7296 18.0344 17.5497C17.4246 16.3632 17.1196 14.9877 17.1196 13.4233C17.1196 11.8456 17.4246 10.4669 18.0344 9.28693C18.6443 8.10038 19.5093 7.17898 20.6296 6.52273C21.7565 5.85985 23.0922 5.52841 24.6367 5.52841C26.1812 5.52841 27.5136 5.85985 28.6339 6.52273C29.7607 7.17898 30.6291 8.10038 31.239 9.28693C31.8488 10.4669 32.1537 11.8456 32.1537 13.4233C32.1537 14.9877 31.8488 16.3632 31.239 17.5497C30.6291 18.7296 29.7607 19.651 28.6339 20.3139C27.5136 20.9702 26.1812 21.2983 24.6367 21.2983ZM24.6566 18.017C25.3592 18.017 25.9459 17.8182 26.4165 17.4205C26.8872 17.0161 27.2418 16.4659 27.4804 15.7699C27.7257 15.0739 27.8483 14.2817 27.8483 13.3935C27.8483 12.5052 27.7257 11.7131 27.4804 11.017C27.2418 10.321 26.8872 9.77083 26.4165 9.36648C25.9459 8.96212 25.3592 8.75994 24.6566 8.75994C23.9473 8.75994 23.3507 8.96212 22.8668 9.36648C22.3895 9.77083 22.0283 10.321 21.783 11.017C21.5444 11.7131 21.425 12.5052 21.425 13.3935C21.425 14.2817 21.5444 15.0739 21.783 15.7699C22.0283 16.4659 22.3895 17.0161 22.8668 17.4205C23.3507 17.8182 23.9473 18.017 24.6566 18.017ZM40.6886 21.2983C39.1441 21.2983 37.8084 20.9702 36.6815 20.3139C35.5612 19.651 34.6961 18.7296 34.0863 17.5497C33.4764 16.3632 33.1715 14.9877 33.1715 13.4233C33.1715 11.8456 33.4764 10.4669 34.0863 9.28693C34.6961 8.10038 35.5612 7.17898 36.6815 6.52273C37.8084 5.85985 39.1441 5.52841 40.6886 5.52841C42.2331 5.52841 43.5655 5.85985 44.6857 6.52273C45.8126 7.17898 46.681 8.10038 47.2908 9.28693C47.9007 10.4669 48.2056 11.8456 48.2056 13.4233C48.2056 14.9877 47.9007 16.3632 47.2908 17.5497C46.681 18.7296 45.8126 19.651 44.6857 20.3139C43.5655 20.9702 42.2331 21.2983 40.6886 21.2983ZM40.7085 18.017C41.4111 18.017 41.9978 17.8182 42.4684 17.4205C42.939 17.0161 43.2937 16.4659 43.5323 15.7699C43.7776 15.0739 43.9002 14.2817 43.9002 13.3935C43.9002 12.5052 43.7776 11.7131 43.5323 11.017C43.2937 10.321 42.939 9.77083 42.4684 9.36648C41.9978 8.96212 41.4111 8.75994 40.7085 8.75994C39.9992 8.75994 39.4026 8.96212 38.9187 9.36648C38.4414 9.77083 38.0801 10.321 37.8349 11.017C37.5962 11.7131 37.4769 12.5052 37.4769 13.3935C37.4769 14.2817 37.5962 15.0739 37.8349 15.7699C38.0801 16.4659 38.4414 17.0161 38.9187 17.4205C39.4026 17.8182 39.9992 18.017 40.7085 18.017ZM55.4677 21.2486C54.3077 21.2486 53.257 20.9503 52.3157 20.3537C51.3811 19.7505 50.6386 18.8655 50.0885 17.6989C49.5449 16.5256 49.2731 15.0871 49.2731 13.3835C49.2731 11.6335 49.5548 10.1785 50.1183 9.01847C50.6817 7.8518 51.4308 6.98011 52.3654 6.40341C53.3067 5.82008 54.3375 5.52841 55.4578 5.52841C56.3129 5.52841 57.0255 5.67424 57.5956 5.96591C58.1723 6.25095 58.6363 6.6089 58.9876 7.03977C59.3456 7.46401 59.6173 7.88163 59.8029 8.29261H59.9322V0.636363H64.1581V21H59.9819V18.554H59.8029C59.6041 18.9782 59.3224 19.3991 58.9578 19.8168C58.5998 20.2277 58.1325 20.5691 57.5558 20.8409C56.9857 21.1127 56.2897 21.2486 55.4677 21.2486ZM56.81 17.8778C57.4928 17.8778 58.0695 17.6922 58.5402 17.321C59.0174 16.9432 59.382 16.4162 59.6339 15.7401C59.8924 15.0639 60.0217 14.2718 60.0217 13.3636C60.0217 12.4555 59.8957 11.6667 59.6439 10.9972C59.392 10.3277 59.0274 9.81061 58.5501 9.44602C58.0728 9.08144 57.4928 8.89915 56.81 8.89915C56.114 8.89915 55.5274 9.08807 55.0501 9.46591C54.5728 9.84375 54.2116 10.3674 53.9663 11.0369C53.721 11.7064 53.5984 12.482 53.5984 13.3636C53.5984 14.2519 53.721 15.0374 53.9663 15.7202C54.2182 16.3963 54.5795 16.9266 55.0501 17.3111C55.5274 17.6889 56.114 17.8778 56.81 17.8778ZM79.228 10.0824L75.3502 10.321C75.2839 9.98958 75.1414 9.69129 74.9226 9.42614C74.7039 9.15436 74.4155 8.93892 74.0576 8.77983C73.7063 8.61411 73.2853 8.53125 72.7948 8.53125C72.1385 8.53125 71.585 8.67045 71.1343 8.94886C70.6835 9.22064 70.4581 9.58523 70.4581 10.0426C70.4581 10.4072 70.604 10.7154 70.8956 10.9673C71.1873 11.2192 71.6878 11.4214 72.3971 11.5739L75.1613 12.1307C76.6461 12.4356 77.7531 12.9261 78.4823 13.6023C79.2115 14.2784 79.576 15.1667 79.576 16.267C79.576 17.268 79.2811 18.1463 78.6911 18.902C78.1078 19.6577 77.3057 20.2476 76.2849 20.6719C75.2706 21.0895 74.1007 21.2983 72.7749 21.2983C70.7531 21.2983 69.1423 20.8774 67.9425 20.0355C66.7493 19.187 66.05 18.0336 65.8445 16.5753L70.0107 16.3565C70.1367 16.973 70.4416 17.4437 70.9255 17.7685C71.4094 18.0866 72.0292 18.2457 72.7849 18.2457C73.5273 18.2457 74.1239 18.1032 74.5746 17.8182C75.032 17.5265 75.264 17.152 75.2706 16.6946C75.264 16.3101 75.1016 15.9953 74.7834 15.75C74.4653 15.4981 73.9747 15.3059 73.3118 15.1733L70.667 14.6463C69.1755 14.348 68.0652 13.831 67.336 13.0952C66.6135 12.3594 66.2522 11.4214 66.2522 10.2812C66.2522 9.30019 66.5173 8.45502 67.0476 7.74574C67.5846 7.03646 68.3369 6.48958 69.3047 6.10511C70.2792 5.72064 71.4193 5.52841 72.7252 5.52841C74.6542 5.52841 76.1722 5.93608 77.2792 6.75142C78.3928 7.56676 79.0424 8.67708 79.228 10.0824Z" fill="#7A2841"/>
</svg>
